<svg width="40" height="40" viewBox="0 0 40 40" fill="none" xmlns="http://www.w3.org/2000/svg">
<path d="M23.333 5V11.6667C23.333 12.1087 23.5086 12.5326 23.8212 12.8452C24.1337 13.1577 24.5576 13.3333 24.9997 13.3333H31.6663M23.333 5H11.6663C10.7823 5 9.93444 5.35119 9.30932 5.97631C8.6842 6.60143 8.33301 7.44928 8.33301 8.33333V31.6667C8.33301 32.5507 8.6842 33.3986 9.30932 34.0237C9.93444 34.6488 10.7823 35 11.6663 35H28.333C29.2171 35 30.0649 34.6488 30.69 34.0237C31.3152 33.3986 31.6663 32.5507 31.6663 31.6667V13.3333M23.333 5L31.6663 13.3333" stroke="#5747FF" stroke-width="1.5" stroke-linecap="round" stroke-linejoin="round"/>
</svg>
